<?xml version="1.0" encoding="UTF-8" standalone="no"?>
<!-- Created with Inkscape (http://www.inkscape.org/) -->

<svg
   version="1.1"
   id="svg182"
   width="278.39151"
   height="307.51489"
   viewBox="0 0 278.39151 307.51489"
   sodipodi:docname="lampada2.svg"
   xmlns:inkscape="http://www.inkscape.org/namespaces/inkscape"
   xmlns:sodipodi="http://sodipodi.sourceforge.net/DTD/sodipodi-0.dtd"
   xmlns="http://www.w3.org/2000/svg"
   xmlns:svg="http://www.w3.org/2000/svg">
  <defs
     id="defs186" />
  <sodipodi:namedview
     id="namedview184"
     pagecolor="#ffffff"
     bordercolor="#666666"
     borderopacity="1.0"
     inkscape:showpageshadow="2"
     inkscape:pageopacity="0.0"
     inkscape:pagecheckerboard="0"
     inkscape:deskcolor="#d1d1d1"
     showgrid="false" />
  <g
     inkscape:groupmode="layer"
     inkscape:label="Image"
     id="g188"
     transform="translate(-191.4452,-166.05599)">
    <g
       id="g620">
      <g
         id="g1129"
         transform="matrix(0.46613981,0,0,0.53953993,181.05612,140.62344)">
        <g
           id="g1101"
           transform="matrix(1.0001622,0,0,0.77463357,-0.05204456,139.03951)">
          <path
             style="fill:#f5dfb6;stroke:#ffffff;stroke-width:1px;stroke-linecap:butt;stroke-linejoin:miter;stroke-opacity:1"
             d="M 161.98738,278.86435 C 135.3498,246.03109 132.90159,190.1861 146.92892,146.25084 158.26299,110.75122 183.20049,82.400132 192.61537,71.191471 204.00435,57.632583 216.61634,50.403796 231.38974,39.556929 253.85987,23.058996 284.72354,17.191375 309.61625,13.608417 431.4921,-3.933906 567.95802,147.66221 478.78549,285.01577"
             id="path356"
             sodipodi:nodetypes="cssssc" />
          <path
             style="fill:#f5dfb6;stroke:#ffffff;stroke-width:1px;stroke-linecap:butt;stroke-linejoin:miter;stroke-opacity:1"
             d="m 159.93691,275.78864 c 54.33754,94.32177 55.36277,95.34701 55.36277,95.34701 l 6.15142,67.66561 20.50474,21.52997 171.21451,4.10095 20.50473,-29.73186 1.02524,-64.58991 47.16088,-90.22082"
             id="path454" />
          <path
             style="fill:none;stroke:#FFFFFF;stroke-width:2px;stroke-linecap:butt;stroke-linejoin:miter;stroke-opacity:1"
             d="m 244.00631,477.76025 164.03785,5.12619 -166.08832,26.65615 158.91167,4.10094 -161.98738,24.60568 156.86119,6.15142 -152.76025,24.60568 149.68455,9.22713 -152.76026,37.93375"
             id="path1064" />
          <path
             style="fill:none;stroke:#f5dfb6;stroke-width:1px;stroke-linecap:butt;stroke-linejoin:miter;stroke-opacity:1"
             d="M 38.958991,26.656151 C 131.23028,87.14511 129.17981,87.14511 129.17981,87.14511"
             id="path1066" />
          <path
             style="fill:none;stroke:#f5dfb6;stroke-width:1px;stroke-linecap:butt;stroke-linejoin:miter;stroke-opacity:1"
             d="M 22.555205,97.397476 C 108.67508,139.43218 108.67508,139.43218 108.67508,139.43218"
             id="path1068" />
          <path
             style="fill:none;stroke:#f5dfb6;stroke-width:1px;stroke-linecap:butt;stroke-linejoin:miter;stroke-opacity:1"
             d="m 26.656151,182.49211 c 78.943219,3.07571 78.943219,3.07571 78.943219,3.07571"
             id="path1070" />
          <path
             style="fill:none;stroke:#f5dfb6;stroke-width:1px;stroke-linecap:butt;stroke-linejoin:miter;stroke-opacity:1"
             d="M 118.92744,226.57729 C 46.135647,282.9653 46.135647,282.9653 46.135647,282.9653"
             id="path1072" />
          <path
             style="fill:none;stroke:#f5dfb6;stroke-width:1px;stroke-linecap:butt;stroke-linejoin:miter;stroke-opacity:1"
             d="M 164.03785,314.74763 C 74.842271,366.00946 74.842271,366.00946 74.842271,366.00946"
             id="path1074" />
          <path
             style="fill:none;stroke:#f5dfb6;stroke-width:1px;stroke-linecap:butt;stroke-linejoin:miter;stroke-opacity:1"
             d="M 489.03785,48.18612 588.4858,21.529968"
             id="path1076" />
          <path
             style="fill:none;stroke:#f5dfb6;stroke-width:1px;stroke-linecap:butt;stroke-linejoin:miter;stroke-opacity:1"
             d="M 509.54259,94.321767 C 598.73817,71.766562 598.73817,71.766562 598.73817,71.766562"
             id="path1080" />
          <path
             style="fill:none;stroke:#f5dfb6;stroke-width:1px;stroke-linecap:butt;stroke-linejoin:miter;stroke-opacity:1"
             d="m 533.12303,152.76025 c 84.0694,2.05048 86.11987,3.07571 86.11987,3.07571"
             id="path1082" />
          <path
             style="fill:none;stroke:#f5dfb6;stroke-width:1px;stroke-linecap:butt;stroke-linejoin:miter;stroke-opacity:1"
             d="m 524.92114,198.8959 c 86.11987,33.83281 85.09463,33.83281 85.09463,33.83281"
             id="path1084" />
          <path
             style="fill:none;stroke:#f5dfb6;stroke-width:1px;stroke-linecap:butt;stroke-linejoin:miter;stroke-opacity:1"
             d="m 506.46688,275.78864 c 80.99369,35.88328 80.99369,35.88328 80.99369,35.88328"
             id="path1086" />
        </g>
        <path
           style="fill:none;stroke:#f5dfb6;stroke-width:1px;stroke-linecap:butt;stroke-linejoin:miter;stroke-opacity:1"
           d="m 116.87697,110.72555 c 65.61514,44.08518 65.61514,47.16089 65.61514,47.16089"
           id="path1103" />
        <path
           style="fill:none;stroke:#f5dfb6;stroke-width:1px;stroke-linecap:butt;stroke-linejoin:miter;stroke-opacity:1"
           d="m 219.40063,63.564669 c 35.88328,58.438481 35.88328,58.438481 35.88328,58.438481"
           id="path1105" />
        <path
           style="fill:none;stroke:#f5dfb6;stroke-width:1px;stroke-linecap:butt;stroke-linejoin:miter;stroke-opacity:1"
           d="m 351.65615,47.160883 c -3.07571,65.615147 -3.07571,65.615147 -3.07571,65.615147"
           id="path1107" />
        <path
           style="fill:none;stroke:#f5dfb6;stroke-width:1px;stroke-linecap:butt;stroke-linejoin:miter;stroke-opacity:1"
           d="M 420.347,135.33123 C 516.71924,67.665615 516.71924,67.665615 516.71924,67.665615"
           id="path1109" />
      </g>
      <g
         id="g597">
        <path
           style="fill:none;stroke:#f5dfb6;stroke-width:0.5px;stroke-linecap:butt;stroke-linejoin:miter;stroke-opacity:1"
           d="m 401.46723,359.10164 c 36.86299,16.49134 36.86299,16.49134 36.86299,16.49134"
           id="path540" />
      </g>
    </g>
  </g>
</svg>
